<svg width="85" height="25" viewBox="0 0 85 25" fill="none" xmlns="http://www.w3.org/2000/svg">
<path d="M2.544 24C1.88267 24 1.37067 23.8187 1.008 23.456C0.645334 23.072 0.464 22.5493 0.464 21.888V3.424C0.464 2.74133 0.634667 2.22933 0.976 1.888C1.33867 1.52533 1.85067 1.344 2.512 1.344C3.17333 1.344 3.67467 1.52533 4.016 1.888C4.37867 2.22933 4.56 2.74133 4.56 3.424V20.512H13.84C14.416 20.512 14.8533 20.6613 15.152 20.96C15.472 21.2587 15.632 21.6853 15.632 22.24C15.632 22.7947 15.472 23.232 15.152 23.552C14.8533 23.8507 14.416 24 13.84 24H2.544ZM23.2008 24.32C22.0701 24.32 21.0568 24.1067 20.1608 23.68C19.2861 23.232 18.5928 22.6347 18.0807 21.888C17.5901 21.1413 17.3448 20.2987 17.3448 19.36C17.3448 18.208 17.6434 17.3013 18.2408 16.64C18.8381 15.9573 19.8088 15.4667 21.1528 15.168C22.4968 14.8693 24.2994 14.72 26.5608 14.72H28.1608V17.024H26.5928C25.2701 17.024 24.2141 17.088 23.4248 17.216C22.6354 17.344 22.0701 17.568 21.7288 17.888C21.4088 18.1867 21.2488 18.6133 21.2488 19.168C21.2488 19.872 21.4941 20.448 21.9848 20.896C22.4754 21.344 23.1581 21.568 24.0328 21.568C24.7368 21.568 25.3554 21.408 25.8888 21.088C26.4434 20.7467 26.8808 20.288 27.2008 19.712C27.5208 19.136 27.6808 18.4747 27.6808 17.728V14.048C27.6808 12.9813 27.4461 12.2133 26.9768 11.744C26.5074 11.2747 25.7181 11.04 24.6088 11.04C23.9901 11.04 23.3181 11.1147 22.5928 11.264C21.8888 11.4133 21.1421 11.6693 20.3528 12.032C19.9474 12.224 19.5848 12.2773 19.2648 12.192C18.9661 12.1067 18.7314 11.936 18.5608 11.68C18.3901 11.4027 18.3048 11.104 18.3048 10.784C18.3048 10.464 18.3901 10.1547 18.5608 9.856C18.7314 9.536 19.0194 9.30133 19.4248 9.152C20.4061 8.74667 21.3448 8.45867 22.2408 8.288C23.1581 8.11733 23.9901 8.032 24.7368 8.032C26.2728 8.032 27.5314 8.26667 28.5128 8.736C29.5154 9.20533 30.2621 9.92 30.7528 10.88C31.2434 11.8187 31.4888 13.0347 31.4888 14.528V22.208C31.4888 22.8693 31.3288 23.3813 31.0088 23.744C30.6888 24.0853 30.2301 24.256 29.6328 24.256C29.0354 24.256 28.5661 24.0853 28.2248 23.744C27.9048 23.3813 27.7448 22.8693 27.7448 22.208V20.672H28.0008C27.8514 21.4187 27.5528 22.0693 27.1048 22.624C26.6781 23.1573 26.1341 23.5733 25.4728 23.872C24.8114 24.1707 24.0541 24.32 23.2008 24.32ZM42.7808 24.32C41.1381 24.32 39.7088 23.9893 38.4928 23.328C37.2768 22.6453 36.3381 21.6853 35.6768 20.448C35.0154 19.2107 34.6848 17.76 34.6848 16.096C34.6848 14.8373 34.8661 13.7173 35.2288 12.736C35.6128 11.7333 36.1568 10.8907 36.8608 10.208C37.5648 9.504 38.4181 8.97067 39.4208 8.608C40.4234 8.224 41.5434 8.032 42.7808 8.032C43.4848 8.032 44.2421 8.128 45.0528 8.32C45.8848 8.512 46.6634 8.832 47.3888 9.28C47.7301 9.49333 47.9541 9.74933 48.0608 10.048C48.1674 10.3467 48.1888 10.656 48.1248 10.976C48.0608 11.2747 47.9221 11.5413 47.7088 11.776C47.5168 11.9893 47.2714 12.128 46.9728 12.192C46.6741 12.2347 46.3434 12.16 45.9808 11.968C45.5114 11.6907 45.0314 11.488 44.5408 11.36C44.0501 11.2107 43.5808 11.136 43.1328 11.136C42.4288 11.136 41.8101 11.2533 41.2768 11.488C40.7434 11.7013 40.2848 12.0213 39.9008 12.448C39.5381 12.8533 39.2608 13.3653 39.0688 13.984C38.8768 14.6027 38.7808 15.3173 38.7808 16.128C38.7808 17.7067 39.1541 18.9547 39.9008 19.872C40.6688 20.768 41.7461 21.216 43.1328 21.216C43.5808 21.216 44.0394 21.152 44.5088 21.024C44.9994 20.896 45.4901 20.6933 45.9808 20.416C46.3434 20.224 46.6634 20.16 46.9408 20.224C47.2394 20.288 47.4848 20.4373 47.6768 20.672C47.8688 20.8853 47.9861 21.152 48.0288 21.472C48.0714 21.7707 48.0288 22.0693 47.9008 22.368C47.7941 22.6667 47.5808 22.912 47.2608 23.104C46.5568 23.5307 45.8101 23.84 45.0208 24.032C44.2314 24.224 43.4848 24.32 42.7808 24.32ZM52.6905 24.256C52.0292 24.256 51.5172 24.0853 51.1545 23.744C50.8132 23.3813 50.6425 22.8693 50.6425 22.208V10.112C50.6425 9.45067 50.8132 8.94933 51.1545 8.608C51.4958 8.26667 51.9758 8.096 52.5945 8.096C53.2132 8.096 53.6932 8.26667 54.0345 8.608C54.3758 8.94933 54.5465 9.45067 54.5465 10.112V12.128H54.2265C54.5252 10.848 55.1118 9.87733 55.9865 9.216C56.8612 8.55467 58.0238 8.16 59.4745 8.032C59.9225 7.98933 60.2745 8.10667 60.5305 8.384C60.8078 8.64 60.9678 9.04533 61.0105 9.6C61.0532 10.1333 60.9252 10.5707 60.6265 10.912C60.3492 11.232 59.9225 11.424 59.3465 11.488L58.6425 11.552C57.3412 11.68 56.3598 12.0853 55.6985 12.768C55.0372 13.4293 54.7065 14.368 54.7065 15.584V22.208C54.7065 22.8693 54.5358 23.3813 54.1945 23.744C53.8532 24.0853 53.3518 24.256 52.6905 24.256ZM70.6358 24.32C68.8651 24.32 67.3398 23.9893 66.0598 23.328C64.7798 22.6667 63.7878 21.728 63.0838 20.512C62.4011 19.296 62.0598 17.856 62.0598 16.192C62.0598 14.5707 62.3904 13.152 63.0518 11.936C63.7344 10.72 64.6624 9.77067 65.8358 9.088C67.0304 8.384 68.3851 8.032 69.8998 8.032C71.0091 8.032 72.0011 8.21333 72.8758 8.576C73.7718 8.93867 74.5291 9.46133 75.1478 10.144C75.7878 10.8267 76.2678 11.6587 76.5878 12.64C76.9291 13.6 77.0998 14.688 77.0998 15.904C77.0998 16.288 76.9611 16.5867 76.6838 16.8C76.4278 16.992 76.0544 17.088 75.5638 17.088H65.2918V14.784H74.2838L73.7718 15.264C73.7718 14.2827 73.6224 13.4613 73.3238 12.8C73.0464 12.1387 72.6304 11.6373 72.0758 11.296C71.5424 10.9333 70.8704 10.752 70.0598 10.752C69.1638 10.752 68.3958 10.9653 67.7558 11.392C67.1371 11.7973 66.6571 12.384 66.3158 13.152C65.9958 13.8987 65.8358 14.7947 65.8358 15.84V16.064C65.8358 17.8133 66.2411 19.1253 67.0518 20C67.8838 20.8533 69.0998 21.28 70.6998 21.28C71.2544 21.28 71.8731 21.216 72.5558 21.088C73.2598 20.9387 73.9211 20.6933 74.5398 20.352C74.9878 20.096 75.3824 19.9893 75.7238 20.032C76.0651 20.0533 76.3318 20.1707 76.5238 20.384C76.7371 20.5973 76.8651 20.864 76.9078 21.184C76.9504 21.4827 76.8864 21.792 76.7158 22.112C76.5664 22.432 76.2998 22.7093 75.9158 22.944C75.1691 23.4133 74.3051 23.7653 73.3238 24C72.3638 24.2133 71.4678 24.32 70.6358 24.32ZM82.2515 24.224C81.6115 24.224 81.1208 24.032 80.7795 23.648C80.4382 23.264 80.2675 22.7307 80.2675 22.048V10.304C80.2675 9.6 80.4382 9.06667 80.7795 8.704C81.1208 8.32 81.6115 8.128 82.2515 8.128C82.8915 8.128 83.3822 8.32 83.7235 8.704C84.0862 9.06667 84.2675 9.6 84.2675 10.304V22.048C84.2675 22.7307 84.0968 23.264 83.7555 23.648C83.4142 24.032 82.9128 24.224 82.2515 24.224ZM82.2515 5.152C81.5048 5.152 80.9182 4.97067 80.4915 4.608C80.0862 4.224 79.8835 3.70133 79.8835 3.04C79.8835 2.35733 80.0862 1.83467 80.4915 1.472C80.9182 1.10933 81.5048 0.927999 82.2515 0.927999C83.0195 0.927999 83.6062 1.10933 84.0115 1.472C84.4168 1.83467 84.6195 2.35733 84.6195 3.04C84.6195 3.70133 84.4168 4.224 84.0115 4.608C83.6062 4.97067 83.0195 5.152 82.2515 5.152Z" fill="#018762"/>
</svg>
